# xmcd
#
# Track frame offsets: 
#        150
#        15408
#        34867
#        52110
#        75183
#        94977
#        122831
#        141396
#        156802
#        176121
#        193945
#        211028
#        229137
#        242466
#        261094
#        285369
#        301018
#
# Disc length: 4281 seconds
#
# Revision: 0
# Processed by: cddbd v1.5.2PL0 Copyright (c) Steve Scherf et al.
# Submitted via: ExactAudioCopyFreeDBPlugin 1.0
#
DISCID=df10b711
DTITLE=Jawga Boyz - Kuntry
DYEAR=2011
DGENRE=Country
TTITLE0=Dirty For Weeks
TTITLE1=Banks Of The River
TTITLE2=Rollin Like A Redneck
TTITLE3=Far From Over
TTITLE4=Keep Ridin On
TTITLE5=Ridin High
TTITLE6=The Day Is So Long
TTITLE7=All The Girls Wanna Ride
TTITLE8=Trip 2 Mexico
TTITLE9=Can't See My Paint Job
TTITLE10=Those Were The Days
TTITLE11=This Far
TTITLE12=Muddy Roads
TTITLE13=Stranger
TTITLE14=Look Inside Yourself
TTITLE15=Another Red Light
TTITLE16=Buckle Up Or Bow Down
EXTD=
EXTT0=
EXTT1=
EXTT2=
EXTT3=
EXTT4=
EXTT5=
EXTT6=
EXTT7=
EXTT8=
EXTT9=
EXTT10=
EXTT11=
EXTT12=
EXTT13=
EXTT14=
EXTT15=
EXTT16=
PLAYORDER=
